<svg xmlns="http://www.w3.org/2000/svg" viewBox="0 0 380 240" role="img" aria-label="Pie diabético">
  <defs>
    <linearGradient id="bg" x1="0" x2="1" y1="0" y2="1">
      <stop offset="0" stop-color="#eefcff"/>
      <stop offset="1" stop-color="#f5fff9"/>
    </linearGradient>
    <filter id="shadow" x="-20%" y="-20%" width="140%" height="140%">
      <feDropShadow dx="0" dy="10" stdDeviation="12" flood-color="#00458f" flood-opacity="0.18"/>
    </filter>
  </defs>
  <rect width="380" height="240" rx="26" fill="url(#bg)"/>
  <circle cx="310" cy="44" r="52" fill="#0069c8" opacity=".12"/>
  <circle cx="62" cy="198" r="60" fill="#f6c21f" opacity=".15"/>
  <g filter="url(#shadow)">
    <path d="M95 175c35-55 95-80 150-52 33 17 52 49 52 83 0 46-37 83-83 83h-57c-44 0-82-29-94-70-5-17 8-35 26-35h53c17 0 31-14 31-31 0-11-6-22-15-27-23 7-44 24-63 49z" fill="#0069c8" opacity=".96"/>
  </g>
  <rect x="38" y="30" width="190" height="13" rx="7" fill="#0069c8" opacity=".22"/>
  <rect x="38" y="53" width="130" height="10" rx="5" fill="#0069c8" opacity=".16"/>
</svg>