<svg xmlns="http://www.w3.org/2000/svg" viewBox="0 0 380 240" role="img" aria-label="Masoterapia">
  <defs>
    <linearGradient id="bg" x1="0" x2="1" y1="0" y2="1">
      <stop offset="0" stop-color="#eefcff"/>
      <stop offset="1" stop-color="#f5fff9"/>
    </linearGradient>
    <filter id="shadow" x="-20%" y="-20%" width="140%" height="140%">
      <feDropShadow dx="0" dy="10" stdDeviation="12" flood-color="#00458f" flood-opacity="0.18"/>
    </filter>
  </defs>
  <rect width="380" height="240" rx="26" fill="url(#bg)"/>
  <circle cx="310" cy="44" r="52" fill="#0077b6" opacity=".12"/>
  <circle cx="62" cy="198" r="60" fill="#f6c21f" opacity=".15"/>
  <g filter="url(#shadow)">
    <path d="M92 185c0-25 20-45 45-45h106c25 0 45 20 45 45v25H92v-25zm22 52h152v26H114v-26zm43-128c0-16 13-29 29-29s29 13 29 29-13 29-29 29-29-13-29-29z" fill="#0077b6" opacity=".96"/>
  </g>
  <rect x="38" y="30" width="190" height="13" rx="7" fill="#0077b6" opacity=".22"/>
  <rect x="38" y="53" width="130" height="10" rx="5" fill="#0077b6" opacity=".16"/>
</svg>