<svg xmlns="http://www.w3.org/2000/svg" viewBox="0 0 380 240" role="img" aria-label="Reflexología">
  <defs>
    <linearGradient id="bg" x1="0" x2="1" y1="0" y2="1">
      <stop offset="0" stop-color="#eefcff"/>
      <stop offset="1" stop-color="#f5fff9"/>
    </linearGradient>
    <filter id="shadow" x="-20%" y="-20%" width="140%" height="140%">
      <feDropShadow dx="0" dy="10" stdDeviation="12" flood-color="#00458f" flood-opacity="0.18"/>
    </filter>
  </defs>
  <rect width="380" height="240" rx="26" fill="url(#bg)"/>
  <circle cx="310" cy="44" r="52" fill="#00a982" opacity=".12"/>
  <circle cx="62" cy="198" r="60" fill="#f6c21f" opacity=".15"/>
  <g filter="url(#shadow)">
    <path d="M196 82c12 36 6 78-24 108-28 28-68 38-106 28 13-38 41-70 78-86 18-8 36-18 52-50zm32 34c31 22 52 59 52 101-38 9-79 0-107-28 32-17 51-44 55-73z" fill="#00a982" opacity=".96"/>
  </g>
  <rect x="38" y="30" width="190" height="13" rx="7" fill="#00a982" opacity=".22"/>
  <rect x="38" y="53" width="130" height="10" rx="5" fill="#00a982" opacity=".16"/>
</svg>