<svg xmlns="http://www.w3.org/2000/svg" viewBox="0 0 380 240" role="img" aria-label="Uña encarnada">
  <defs>
    <linearGradient id="bg" x1="0" x2="1" y1="0" y2="1">
      <stop offset="0" stop-color="#eefcff"/>
      <stop offset="1" stop-color="#f5fff9"/>
    </linearGradient>
    <filter id="shadow" x="-20%" y="-20%" width="140%" height="140%">
      <feDropShadow dx="0" dy="10" stdDeviation="12" flood-color="#00458f" flood-opacity="0.18"/>
    </filter>
  </defs>
  <rect width="380" height="240" rx="26" fill="url(#bg)"/>
  <circle cx="310" cy="44" r="52" fill="#00a982" opacity=".12"/>
  <circle cx="62" cy="198" r="60" fill="#f6c21f" opacity=".15"/>
  <g filter="url(#shadow)">
    <path d="M120 90c65 15 115 65 115 130 0 35-25 62-58 62-50 0-72-50-72-93 0-38 6-72 15-99zm50 53c-8 25-10 54-4 78 4 17 13 31 26 31 12 0 21-11 21-26 0-38-16-65-43-83z" fill="#00a982" opacity=".96"/>
  </g>
  <rect x="38" y="30" width="190" height="13" rx="7" fill="#00a982" opacity=".22"/>
  <rect x="38" y="53" width="130" height="10" rx="5" fill="#00a982" opacity=".16"/>
</svg>