<svg xmlns="http://www.w3.org/2000/svg" viewBox="0 0 380 240" role="img" aria-label="Podología clínica">
  <defs>
    <linearGradient id="bg" x1="0" x2="1" y1="0" y2="1">
      <stop offset="0" stop-color="#eefcff"/>
      <stop offset="1" stop-color="#f5fff9"/>
    </linearGradient>
    <filter id="shadow" x="-20%" y="-20%" width="140%" height="140%">
      <feDropShadow dx="0" dy="10" stdDeviation="12" flood-color="#00458f" flood-opacity="0.18"/>
    </filter>
  </defs>
  <rect width="380" height="240" rx="26" fill="url(#bg)"/>
  <circle cx="310" cy="44" r="52" fill="#0077b6" opacity=".12"/>
  <circle cx="62" cy="198" r="60" fill="#f6c21f" opacity=".15"/>
  <g filter="url(#shadow)">
    <path d="M180 110c-30 0-55 25-55 55v25h-25c-20 0-35 15-35 35s15 35 35 35h95c42 0 75-33 75-75v-15c0-30-25-55-55-55h-35zm-20 65h50v45h-50z" fill="#0077b6" opacity=".96"/>
  </g>
  <rect x="38" y="30" width="190" height="13" rx="7" fill="#0077b6" opacity=".22"/>
  <rect x="38" y="53" width="130" height="10" rx="5" fill="#0077b6" opacity=".16"/>
</svg>